<svg xmlns="http://www.w3.org/2000/svg" viewBox="0 0 66.38 76.92"><defs><style>.cls-1,.cls-2,.cls-3,.cls-4{fill:none;stroke:#007c21;stroke-width:2.5px;}.cls-1,.cls-2,.cls-4{stroke-linecap:round;}.cls-1{stroke-linejoin:round;}.cls-4{stroke-miterlimit:10;}</style></defs><g id="Layer_2" data-name="Layer 2"><g id="Calque_2" data-name="Calque 2"><path class="cls-1" d="M5,54.27C3.45,59,1.62,64.82,1.36,66.75c-.48,3.51.56,7.17,4,8.66,0,0,3.24,1.61,7.89-3.19L40.19,44.49a5.08,5.08,0,0,0,1.44-3.08,5.05,5.05,0,0,0-1.56-2.93L25.06,23l-7.74,6.26"/><path class="cls-1" d="M12.58,33.14C9.47,35.67,7.43,37.34,6.75,38A6.19,6.19,0,0,0,5,41.66s-1,4.41,9.39,15.73l3.06,3.15-7.7,8.1h0C8.41,70,7.5,70.49,7.18,70.36a3.22,3.22,0,0,1-.93-2.9,70.84,70.84,0,0,1,2.47-8.6"/><line class="cls-2" x1="16.1" y1="49.41" x2="21.89" y2="55.37"/><line class="cls-2" x1="19.94" y1="45.46" x2="25.73" y2="51.41"/><line class="cls-1" x1="19.85" y1="36.72" x2="13.82" y2="19.39"/><path class="cls-3" d="M31.88,23.52,48.24,6.68C52,2.85,57.58,2.36,60.72,5.59s2.67,9-1,12.85L43.31,35.28"/><line class="cls-2" x1="36.95" y1="26.6" x2="52.98" y2="10.02"/><line class="cls-4" x1="34.52" y1="20.29" x2="33.22" y2="18.96"/><line class="cls-4" x1="40.13" y1="14.52" x2="38.83" y2="13.18"/><line class="cls-4" x1="45.73" y1="8.75" x2="44.44" y2="7.41"/><line class="cls-4" x1="47.8" y1="33.96" x2="46.5" y2="32.62"/><line class="cls-4" x1="53.4" y1="28.18" x2="52.11" y2="26.85"/><line class="cls-4" x1="59.01" y1="22.41" x2="57.71" y2="21.08"/><line class="cls-4" x1="60.82" y1="5.42" x2="62.12" y2="4.08"/><line class="cls-4" x1="51.01" y1="4.17" x2="50.21" y2="2.47"/><line class="cls-4" x1="56.33" y1="3.13" x2="56.53" y2="1.25"/><line class="cls-4" x1="62.21" y1="15.84" x2="63.86" y2="16.66"/><line class="cls-4" x1="63.31" y1="10.45" x2="65.13" y2="10.25"/></g></g></svg>