<svg xmlns="http://www.w3.org/2000/svg" viewBox="0 0 71.28 67.88"><defs><style>.cls-1,.cls-2,.cls-3{fill:none;stroke:#007c21;stroke-width:2.5px;}.cls-1,.cls-3{stroke-linejoin:round;}.cls-2{stroke-miterlimit:10;}.cls-3{stroke-linecap:round;}</style></defs><g id="Layer_2" data-name="Layer 2"><g id="Calque_2" data-name="Calque 2"><path class="cls-1" d="M49.77,46.31l12.15-6.22c2.35-1.26,5.11-.75,6.24,1.36A4.64,4.64,0,0,1,66,47.59L40.73,61.11l-1.33.34-23.53.63s-3,.85-6.66,5"/><path class="cls-2" d="M.85,54.69l10.67-9.82c5.21-3.52,11.39-1.58,11.39-1.58a51.47,51.47,0,0,0,8.56,1H40.7c2.75,0,5,2,5,4.36S43.45,53,40.7,53H27.93"/><path class="cls-1" d="M27.75,18.19c2,3.66,4.41,10.24,5.35,21.27"/><path class="cls-2" d="M27.63,18.25C24.81,20,19.7,16.57,18.16,11.9a18.28,18.28,0,0,1-.6-10.39,21.12,21.12,0,0,1,8.85,5.4C29.83,10.44,30.14,16.69,27.63,18.25Z"/><path class="cls-2" d="M58.49,27.56C50.42,34.7,43,30.72,39.75,25.18S37,11.14,46,7.45c6.76-2.79,23.64-.57,23.64-.57S64.35,22.38,58.49,27.56Z"/><line class="cls-3" x1="45.92" y1="21.79" x2="52.31" y2="25.02"/><line class="cls-3" x1="51.22" y1="17.84" x2="51.4" y2="12.99"/><path class="cls-3" d="M59.8,12.89,39,25.85s-4.59,3.37-6.37,6.86"/></g></g></svg>