<svg xmlns="http://www.w3.org/2000/svg" viewBox="0 0 79.82 62.85"><defs><style>.cls-1,.cls-2{fill:none;stroke-linejoin:round;}.cls-1,.cls-2,.cls-3{stroke:#007c21;stroke-width:2.5px;}.cls-2{stroke-linecap:round;}.cls-3{fill:#007c21;stroke-miterlimit:10;}</style></defs><g id="Layer_2" data-name="Layer 2"><g id="Calque_2" data-name="Calque 2"><polyline class="cls-1" points="6.51 16.31 1.26 21.11 1.59 36.11 15.71 46.87"/><path class="cls-1" d="M69.64,46.69c-4.1-1-14.57-6.6-35.88-12.24,0,0-13,.28-13.16,7.14,0,0,.09.87.18,1.6"/><line class="cls-1" x1="31.83" y1="57.56" x2="59.31" y2="57.56"/><path class="cls-1" d="M36.29,35V29.42s-.56-4.06,4.77-4.06H52.28s4.34.12,4.34,3.62v3.76l4.13,1.62s3.07.78,3.07,3.4v6.29"/><path class="cls-2" d="M23.34,37,2,9.94S-1.09,5.79,5.37,1.25"/><path class="cls-1" d="M25.47,46.55A7.53,7.53,0,1,0,33,54.08,7.53,7.53,0,0,0,25.47,46.55Z"/><path class="cls-1" d="M71,46.55a7.53,7.53,0,1,0,7.53,7.53A7.53,7.53,0,0,0,71,46.55Z"/><line class="cls-2" x1="40.7" y1="51.82" x2="40.7" y2="48.22"/><line class="cls-2" x1="46.65" y1="51.82" x2="46.65" y2="48.22"/><line class="cls-2" x1="52.6" y1="51.82" x2="52.6" y2="48.22"/><path class="cls-3" d="M71.84,54.08a.78.78,0,1,1-.78-.78A.78.78,0,0,1,71.84,54.08Z"/><path class="cls-3" d="M26.25,54.08a.78.78,0,1,1-.78-.78A.78.78,0,0,1,26.25,54.08Z"/></g></g></svg>