<svg xmlns="http://www.w3.org/2000/svg" viewBox="0 0 95.36 97.42"><defs><style>.cls-1{fill:#fff;}</style></defs><g id="Layer_2" data-name="Layer 2"><g id="_ÎÓÈ_1" data-name="—ÎÓÈ_1"><path class="cls-1" d="M.17,97.42V25.5H19.66V97.42Z"/><path class="cls-1" d="M46.71,32.79a26.33,26.33,0,0,1,8-5.82,28.06,28.06,0,0,1,12.9-2.73A29.84,29.84,0,0,1,79,26.34a25.29,25.29,0,0,1,8.76,5.89,25.67,25.67,0,0,1,5.61,9.18,34.42,34.42,0,0,1,2,11.85V97.42H76V56.62q0-6.45-3.43-10.44t-9.74-4q-7.16,0-11.5,4.21T47,58.16V97.42H27.51V25.5h19.2Z"/><circle class="cls-1" cx="9.91" cy="9.91" r="9.91"/></g></g></svg>