<svg xmlns="http://www.w3.org/2000/svg" viewBox="0 0 96.39 80.26"><defs><style>.cls-1{fill:#fff;}</style></defs><g id="Layer_2" data-name="Layer 2"><g id="_ÎÓÈ_1" data-name="—ÎÓÈ_1"><path class="cls-1" d="M28.32,80.17c-1.57,0-.12,0,0,0Z"/><path class="cls-1" d="M31.57,80.22c.05,0,.11,0,0,0C33.07,80.26,31.81,80.12,31.57,80.22Z"/><path class="cls-1" d="M96,10.83c-1.66.76-2.73,1.2-3.78,1.64a32.21,32.21,0,0,1-6.85,2.07,6.9,6.9,0,0,0,3-2.14s4.42-4.29,5.23-8.33a.26.26,0,0,0-.37-.29,45.55,45.55,0,0,1-5.59,2.38A41.62,41.62,0,0,1,81.82,8S72.62-4.1,58.3,1.46A20.87,20.87,0,0,0,47,11.48a27.3,27.3,0,0,0-3.1,13.65c-9.68-1.71-18.3-4.78-25.92-10-.38-.39-3.24-2.42-4.06-3.05A59.24,59.24,0,0,1,7.15,5.54L7,5.41A14.5,14.5,0,0,1,5.86,3.69C1.37,15.08,3.53,23.85,6,29.06a23.55,23.55,0,0,1-6-1.5c3.71,13.51,12.33,19.05,17.4,21.2a22,22,0,0,1-8.49-.33c5.62,13.63,17.24,14.18,17.24,14.18C18,70.17.34,70.68.1,70.8s0,.36.25.58c1.11.73,2.24,1.38,3.38,2a53.14,53.14,0,0,0,10.84,4.34C34.06,83.1,56,79.15,70.63,64.61,82.12,53.2,86.15,37.46,86.15,21.7c0,0,9.31-4.77,10.23-10.59A.26.26,0,0,0,96,10.83Z"/></g></g></svg>